<svg xmlns="http://www.w3.org/2000/svg" width="40" height="40" viewBox="0 0 40 40">
    <g fill="#00539B" fill-rule="evenodd">
        <path d="M19.859 24.114a3.98 3.98 0 0 0 3.977-3.976c0-.864-.281-1.664-.75-2.317a3.976 3.976 0 0 0-3.223-1.656 3.97 3.97 0 0 0-3.226 1.656 3.974 3.974 0 0 0 3.222 6.293z"/>
        <path d="M19.859.278C8.91.278 0 9.189 0 20.138c0 10.953 8.91 19.863 19.859 19.863 10.953 0 19.864-8.91 19.864-19.863 0-10.949-8.911-19.86-19.864-19.86zm11.297 17.543v9.25a4.369 4.369 0 0 1-4.367 4.364H12.93a4.368 4.368 0 0 1-4.364-4.364V13.212a4.369 4.369 0 0 1 4.364-4.367h13.859a4.37 4.37 0 0 1 4.367 4.367v4.609z"/>
        <path d="M26.039 20.138a6.185 6.185 0 0 1-6.18 6.179c-3.406 0-6.175-2.773-6.175-6.179 0-.817.164-1.602.453-2.317h-3.371v9.25a2.16 2.16 0 0 0 2.164 2.161h13.859a2.164 2.164 0 0 0 2.164-2.161v-9.25h-3.375c.297.715.461 1.5.461 2.317z"/>
    </g>
</svg>
